<svg width="371" height="236" viewBox="0 0 371 236" fill="none" xmlns="http://www.w3.org/2000/svg">
<rect width="61" height="3" rx="1.5" transform="matrix(-1 0 0 1 183 167)" fill="white"/>
<rect width="82" height="3" rx="1.5" transform="matrix(-1 0 0 1 371 167)" fill="white"/>
<rect width="32" height="3" rx="1.5" transform="matrix(-1 0 0 1 80 178)" fill="white"/>
<rect width="122" height="3" rx="1.5" transform="matrix(-1 0 0 1 208 178)" fill="white"/>
<rect width="93" height="3" rx="1.5" transform="matrix(-1 0 0 1 307 178)" fill="white"/>
<rect width="118" height="3" rx="1.5" transform="matrix(-1 0 0 1 371 0)" fill="white"/>
<rect width="128" height="3" rx="1.5" transform="matrix(-1 0 0 1 371 189)" fill="white"/>
<rect width="121" height="3" rx="1.5" transform="matrix(-1 0 0 1 190 189)" fill="white"/>
<rect x="91" width="38" height="3" rx="1.5" fill="white"/>
<rect width="92" height="3" rx="1.5" transform="matrix(-1 0 0 1 271 11)" fill="white"/>
<rect width="99" height="3" rx="1.5" transform="matrix(-1 0 0 1 263 200)" fill="white"/>
<rect width="23" height="3" rx="1.5" transform="matrix(-1 0 0 1 174 11)" fill="white"/>
<rect width="68" height="3" rx="1.5" transform="matrix(-1 0 0 1 116 11)" fill="white"/>
<rect width="79" height="3" rx="1.5" transform="matrix(-1 0 0 1 119 54)" fill="white"/>
<rect width="79" height="3" rx="1.5" transform="matrix(-1 0 0 1 119 211)" fill="white"/>
<rect width="127" height="3" rx="1.5" transform="matrix(-1 0 0 1 252 54)" fill="white"/>
<rect width="127" height="3" rx="1.5" transform="matrix(-1 0 0 1 252 211)" fill="white"/>
<rect width="78" height="3" rx="1.5" transform="matrix(-1 0 0 1 371 54)" fill="white"/>
<rect width="78" height="3" rx="1.5" transform="matrix(-1 0 0 1 371 211)" fill="white"/>
<rect width="53" height="3" rx="1.5" transform="matrix(-1 0 0 1 61 222)" fill="white"/>
<rect width="126" height="3" rx="1.5" transform="matrix(-1 0 0 1 193 65)" fill="white"/>
<rect width="126" height="3" rx="1.5" transform="matrix(-1 0 0 1 193 222)" fill="white"/>
<rect width="45" height="3" rx="1.5" transform="matrix(-1 0 0 1 277 65)" fill="white"/>
<rect width="60" height="3" rx="1.5" transform="matrix(-1 0 0 1 343 65)" fill="white"/>
<rect width="88" height="3" rx="1.5" transform="matrix(-1 0 0 1 371 222)" fill="white"/>
<rect width="22" height="3" rx="1.5" transform="matrix(-1 0 0 1 371 65)" fill="white"/>
<rect width="86" height="3" rx="1.5" transform="matrix(-1 0 0 1 301 76)" fill="white"/>
<rect width="154" height="3" rx="1.5" transform="matrix(-1 0 0 1 301 233)" fill="white"/>
</svg>
